<svg width="70" height="70" viewBox="0 0 70 70" fill="none" xmlns="http://www.w3.org/2000/svg">
<circle cx="35" cy="35" r="35" fill="white"/>
<path d="M21 15.6001L58.2001 41.0001L49 54.6001L11.8 29.0001L21 15.6001Z" fill="url(#paint0_linear_256_1033)"/>
<path d="M58.1999 40.9999C54.9999 45.5999 44.1999 43.7999 33.9999 36.5999C23.5999 29.5999 17.9999 20.1999 20.9999 15.6C24.1999 11 34.9999 12.8 45.1999 19.9999C55.5999 26.7999 61.1999 36.3999 58.1999 40.9999Z" fill="url(#paint1_linear_256_1033)"/>
<path d="M49 54.4002C45.8 59.0002 35 57.2002 24.8 50.0001C14.6 42.8001 8.80002 33.6001 12 28.8001C15.2 24.2001 26 26.0001 36.2 33.2001C46.4 40.4001 52 49.8002 49 54.4002Z" fill="url(#paint2_linear_256_1033)"/>
<path d="M58.2 40.9999L49 54.5999C45.8 59.1999 35 57.1999 24.8 50.1999C22.8 48.7999 21 47.3999 19.2 45.7999C20.6 45.5999 22.4 44.7999 24.2 42.7999C27.4 39.3999 29 38.5999 30.4 38.7999C31.8 38.7999 33.4 40.1999 36 43.5999C38.6 46.9999 42.2 47.9999 44.4 46.1999C44.6 45.9999 44.8 45.9999 45 45.7999C46.8 44.3999 47.4 43.7999 50.8 37.3999C51.6 35.7999 54.4 33.1999 58.2 34.3999C59.2 36.9999 59.2 39.1999 58.2 40.9999Z" fill="#0E0F23"/>
<path fill-rule="evenodd" clip-rule="evenodd" d="M56.8001 40.2001C54.0001 44.2001 44.2001 42.2001 34.8001 35.6001C25.2001 29.0001 19.6001 20.6001 22.4001 16.6001C25.2001 12.6001 35.0001 14.6001 44.4001 21.2001C53.8001 27.8001 59.4001 36.2001 56.8001 40.2001ZM48.0001 34.2001C46.6001 36.2001 41.8001 35.2001 37.0001 32.0001C32.4001 28.8001 29.6001 24.6001 31.0001 22.6001C32.4001 20.6001 37.2001 21.6001 42.0001 24.8001C46.6001 28.0001 49.4001 32.2001 48.0001 34.2001Z" fill="white"/>
<path d="M20.1999 20.1998C20.1999 19.9998 19.9999 19.7998 19.7999 19.9998C19.5999 20.1998 19.3999 20.1998 19.3999 20.3998C19.5999 20.9998 19.7999 21.3998 19.7999 21.7998C19.7999 21.9998 19.9999 22.1998 20.1999 21.9998C20.3999 21.9998 20.5999 21.7998 20.3999 21.5998C20.3999 21.1998 20.3999 20.7998 20.1999 20.1998Z" fill="white"/>
<path d="M21.2001 23.4C21.2001 23.2 21.0001 23 20.8001 23.2C20.6001 23.4 20.6001 23.4 20.6001 23.6C22.8001 28.6 27.4001 34 33.4001 38C33.6001 38.2 33.8001 38 34.0001 38C34.2001 37.8 34.0001 37.6 34.0001 37.4C27.8001 33.4 23.4001 28.2 21.2001 23.4Z" fill="white"/>
<path d="M45.4 43C45.2 43 45 43 45 43.2C45 43.4 45 43.6 45.2 43.6C45.8 43.8 46.6 44 47.2 44.2C47.4 44.2 47.6 44.2 47.6 44C47.6 43.8 47.6 43.6 47.4 43.6C46.8 43.4 46 43.2 45.4 43Z" fill="white"/>
<path d="M49.0001 43.7998C48.8001 43.7998 48.6001 43.9998 48.6001 44.1998C48.6001 44.3998 48.8001 44.5998 49.0001 44.5998C50.6001 44.7998 52.4001 44.9998 53.8001 44.7998C54.0001 44.7998 54.2001 44.5998 54.2001 44.3998C54.2001 44.1998 54.0001 43.9998 53.8001 43.9998C52.2001 44.1998 50.6001 43.9998 49.0001 43.7998Z" fill="white"/>
<defs>
<linearGradient id="paint0_linear_256_1033" x1="28.2884" y1="11.9887" x2="35.6657" y2="37.3211" gradientUnits="userSpaceOnUse">
<stop stop-color="#03B8FF"/>
<stop offset="1" stop-color="#FA52A0"/>
</linearGradient>
<linearGradient id="paint1_linear_256_1033" x1="34.3635" y1="10.2192" x2="41.7409" y2="35.5518" gradientUnits="userSpaceOnUse">
<stop stop-color="#03B8FF"/>
<stop offset="1" stop-color="#FA52A0"/>
</linearGradient>
<linearGradient id="paint2_linear_256_1033" x1="22.232" y1="13.7523" x2="29.6094" y2="39.0849" gradientUnits="userSpaceOnUse">
<stop stop-color="#03B8FF"/>
<stop offset="1" stop-color="#FA52A0"/>
</linearGradient>
</defs>
</svg>
